# xmcd CD database file
#
# Track frame offsets:
#	150
#	11417
#	23945
#	37495
#	48172
#	59572
#	68537
#	80430
#	95175
#	112135
#	125232
#	147195
#	162300
#	174172
#	185907
#	200397
#	210915
#	226470
#	236797
#	243070
#
# Disc length: 3370 seconds
#
# Revision: 0
# Processed by: cddbd v1.5.1PL0 Copyright (c) Steve Scherf et al.
# Submitted via: CDex 1.51
#
DISCID=200d2814
DTITLE=Various Artist - Blues CD2
DYEAR=2001
DGENRE=Blues
TTITLE0=John Lee Hooker-Boom boom
TTITLE1=Elmore James-Shake your money maker
TTITLE2=Howling Wolf-Well that's all right
TTITLE3=Junior Parker-Mystery train
TTITLE4=Muddy Waters-Gipsy woman
TTITLE5=Memphis Slim-Stepping out
TTITLE6=Otis Rush-Double trouble
TTITLE7=Screaming Jay Hawkins-It's only make believe
TTITLE8=Albert King-My babe
TTITLE9=Lighting Hopkins-Got me a Louisiana woman
TTITLE10=Luther Allison-Sweet home Chicago
TTITLE11=Albert Lee&Paul Williams-Water on my fire
TTITLE12=LC MC Inley-I'm so satisfied
TTITLE13=Lonnie Brooks-Figure head
TTITLE14=Mighty Joe Young-Hard times
TTITLE15=Big Joe Williams-Kings highway
TTITLE16=Robert Cray-The score
TTITLE17=The All Star featuring Jeff Beck-Chuckles
TTITLE18=Eric Clapton&Jimmy Page-Chocker
TTITLE19=John Mayall&The Bluesbreakers-I'm your witchdoctor
EXTD=YEAR: 2001
EXTT0=
EXTT1=
EXTT2=
EXTT3=
EXTT4=
EXTT5=
EXTT6=
EXTT7=
EXTT8=
EXTT9=
EXTT10=
EXTT11=
EXTT12=
EXTT13=
EXTT14=
EXTT15=
EXTT16=
EXTT17=
EXTT18=
EXTT19=
PLAYORDER=
